<?xml version="1.0" encoding="utf-8"?>
<!DOCTYPE svg PUBLIC "-//W3C//DTD SVG 1.1//EN" "http://www.w3.org/Graphics/SVG/1.1/DTD/svg11.dtd">
<svg version="1.1" id="图形" xmlns="http://www.w3.org/2000/svg" xmlns:xlink="http://www.w3.org/1999/xlink" x="0px" y="0px" width="1024px" height="1024px" viewBox="0 0 1024 1024" enable-background="new 0 0 1024 1024" xml:space="preserve">
  <path fill="#ecf0f1" d="M767.616 276.512c0 121.472 104.128 172.032 104.128 172.032s-73.728 92.224-173.248 92.224c-94.912 0-129.024-40.832-193.472-40.832-56.192 0-93.056 40.832-174.144 40.832-82.944 0-243.264-75.392-243.264-283.776 0-144.576 126.208-410.624 261.696-410.624 90.304 0 72.768 39.872 167.68 39.872 91.2 0 88.448-39.936 158.464-39.936 118.848 0 223.936 239.488 223.936 239.488S767.616 136.416 767.616 276.512zM669.952 753.632c-210.112-39.04-188.864-218.176-188.864-218.176C692.096 546.976 669.952 753.632 669.952 753.632z" transform="translate(0, 812) scale(1, -1)"/>
</svg>
