<?xml version="1.0" encoding="utf-8"?>
<!DOCTYPE svg PUBLIC "-//W3C//DTD SVG 1.1//EN" "http://www.w3.org/Graphics/SVG/1.1/DTD/svg11.dtd">
<svg version="1.1" id="图形" xmlns="http://www.w3.org/2000/svg" xmlns:xlink="http://www.w3.org/1999/xlink" x="0px" y="0px" width="1024px" height="1024px" viewBox="0 0 1024 1024" enable-background="new 0 0 1024 1024" xml:space="preserve">
  <path fill="#ecf0f1" d="M828.302336 102.765312l0 409.94816c0 0 111.802368 0.07168 111.802368-111.80544l0-186.339328C940.104704 100.4736 828.302336 102.765312 828.302336 102.765312L828.302336 102.765312zM678.065152-33.278208l1.165312-117.424128c0-30.826496-25.039872-55.90016-55.902208-55.90016-30.93504 0-55.902208 25.073664-55.902208 55.90016l-0.072704 104.90368c-41.634816-3.16416-75.62752-2.801664-75.62752-2.801664s-23.2192 0.32768-36.030464 0.910336l-0.073728-102.607872c0-30.826496-24.966144-55.90016-55.901184-55.90016-30.862336 0-55.903232 25.073664-55.903232 55.90016l-0.50688 114.217984c-106.200064 31.517696-111.295488 92.332032-111.295488 92.332032L232.014848 399.780608c0 34.90304 37.267456 37.267456 37.267456 37.267456l483.318784-1.163264c36.031488 0 37.269504-37.267456 37.269504-37.267456l0-343.565312C789.870592 8.901376 737.316864-17.846528 678.065152-33.278208L678.065152-33.278208zM789.870592 475.517696c0 0-557.855744-2.875392-557.855744 0 0 88.329216 39.887872 172.036096 102.923264 227.938304 7.424 6.660096-43.455488 67.912704-25.622528 103.069696 31.736832 3.638272 66.093056-72.753152 75.19232-67.694592 37.99552 21.364736 81.088512 33.62816 127.014912 33.62816 46.29504 0 82.399232-8.879104 120.54016-30.570496 6.62528-3.712 44.911616 68.021248 81.7408 64.89088 6.990848-70.823936-41.270272-90.549248-34.648064-95.972352C746.70592 655.088384 789.870592 567.850752 789.870592 475.517696L789.870592 475.517696zM399.137792 659.491584c-30.570496 0-55.319552-24.747008-55.319552-55.319552 0-30.570496 24.749056-55.319552 55.319552-55.319552 30.570496 0 55.320576 24.748032 55.320576 55.319552C454.458368 634.744576 429.708288 659.491584 399.137792 659.491584L399.137792 659.491584zM621.290496 659.491584c-31.007744 0-56.266752-25.148416-56.266752-56.15616 0-31.081472 25.259008-56.265728 56.266752-56.265728 31.00672 0 56.193024 25.18528 56.193024 56.265728C677.48352 634.343168 652.297216 659.491584 621.290496 659.491584L621.290496 659.491584zM82.944 212.275968 82.944 398.61632c0 114.168832 111.802368 111.803392 111.802368 111.803392l0-409.946112C194.746368 100.4736 82.944 100.4736 82.944 212.275968L82.944 212.275968z" transform="translate(0, 812) scale(1, -1)"/>
</svg>
